<svg width="40" height="40" viewBox="0 0 40 40" fill="none" xmlns="http://www.w3.org/2000/svg">
<path d="M30.9791 14.0125C29.2292 14.0125 27.5776 14.7906 26.4581 16.0938L14.6591 9.28125C14.8685 8.66563 14.9771 8.01641 14.9771 7.36094C14.9771 4.07812 12.3053 1.40625 9.02175 1.40625C5.73823 1.40625 3.06641 4.07813 3.06641 7.36172C3.06641 10.2797 5.1773 12.7133 7.95146 13.2188V26.7812C5.1773 27.2875 3.06641 29.7203 3.06641 32.6383C3.06641 35.9219 5.73823 38.5938 9.02175 38.5938C12.3053 38.5938 14.9771 35.9219 14.9771 32.6383C14.9771 31.9633 14.8615 31.2961 14.6404 30.6648L26.4581 23.8422C27.5784 25.1461 29.2292 25.9242 30.9791 25.9242C34.2627 25.9242 36.9345 23.2523 36.9345 19.9688C36.9345 16.6852 34.2627 14.0125 30.9791 14.0125ZM5.25386 7.36172C5.25386 5.28438 6.94445 3.59375 9.02175 3.59375C11.0991 3.59375 12.7896 5.28438 12.7896 7.36172C12.7896 8.00703 12.6232 8.64453 12.3092 9.20391C11.6459 10.3852 10.3928 11.1234 9.03972 11.1297H9.02175C6.94445 11.1297 5.25386 9.43906 5.25386 7.36172ZM9.02175 36.4062C6.94445 36.4062 5.25386 34.7156 5.25386 32.6383C5.25386 30.5609 6.94445 28.8703 9.02175 28.8703H9.03972C10.3749 28.8766 11.6194 29.6 12.2873 30.7586C12.2928 30.768 12.2983 30.7781 12.3045 30.7875C12.6217 31.35 12.7896 31.9891 12.7896 32.6383C12.7896 34.7156 11.0991 36.4062 9.02175 36.4062ZM25.0285 20.1977C25.0519 20.7938 25.1644 21.3859 25.3621 21.9484L13.5474 28.7695C12.6756 27.7508 11.4553 27.0438 10.1389 26.7898V13.2109C11.4748 12.9563 12.7115 12.2305 13.5849 11.1875L25.3621 17.9867C25.1144 18.6945 24.9988 19.4484 25.0285 20.1977ZM30.9791 23.7359C29.6377 23.7359 28.3878 23.0141 27.7151 21.85C27.3854 21.282 27.2112 20.6313 27.2112 19.968C27.2112 19.3047 27.3855 18.6539 27.7159 18.0844C28.3878 16.9219 29.6377 16.2 30.9791 16.2C33.0564 16.2 34.747 17.8906 34.747 19.968C34.747 22.0453 33.0564 23.7359 30.9791 23.7359Z" fill="#13316B"/>
<path d="M30.9788 16.8242C29.2461 16.8242 27.8359 18.2344 27.8359 19.9672C27.8359 21.7 29.2461 23.1102 30.9788 23.1102C32.7116 23.1102 34.1217 21.7 34.1217 19.9672C34.1217 18.2344 32.7116 16.8242 30.9788 16.8242ZM30.9788 20.9227C30.4523 20.9227 30.0234 20.4937 30.0234 19.9672C30.0234 19.4406 30.4523 19.0117 30.9788 19.0117C31.5054 19.0117 31.9343 19.4406 31.9343 19.9672C31.9343 20.4937 31.5054 20.9227 30.9788 20.9227Z" fill="#48D6D2"/>
<path d="M12.1647 7.36172C12.1647 5.62891 10.7546 4.21875 9.02181 4.21875C7.28903 4.21875 5.87891 5.62891 5.87891 7.36172C5.87891 9.09453 7.28903 10.5047 9.02181 10.5047C10.7546 10.5047 12.1647 9.09453 12.1647 7.36172ZM8.06636 7.36172C8.06636 6.83516 8.49526 6.40625 9.02181 6.40625C9.54836 6.40625 9.97726 6.83516 9.97726 7.36172C9.97726 7.88828 9.54836 8.31719 9.02181 8.31719C8.49526 8.31719 8.06636 7.88828 8.06636 7.36172Z" fill="#48D6D2"/>
<path d="M9.02181 29.4961C7.28903 29.4961 5.87891 30.9062 5.87891 32.6391C5.87891 34.3719 7.28903 35.782 9.02181 35.782C10.7546 35.782 12.1647 34.3719 12.1647 32.6391C12.1647 30.9062 10.7546 29.4961 9.02181 29.4961ZM9.02181 33.5945C8.49526 33.5945 8.06636 33.1656 8.06636 32.6391C8.06636 32.1125 8.49526 31.6836 9.02181 31.6836C9.54836 31.6836 9.97726 32.1125 9.97726 32.6391C9.97726 33.1656 9.54836 33.5945 9.02181 33.5945Z" fill="#48D6D2"/>
</svg>
