<svg width="40" height="40" viewBox="0 0 40 40" fill="none" xmlns="http://www.w3.org/2000/svg">
<path d="M16.8985 20.3102C16.5704 20.6383 16.4852 21.1368 16.6852 21.5555L21.1766 30.9493C21.3587 31.3297 21.743 31.5712 22.1633 31.5712H22.1899C22.6204 31.561 23.0048 31.2993 23.1719 30.9016L24.4508 27.8626L27.4899 26.5837C27.8868 26.4165 28.1485 26.0321 28.1594 25.6016C28.1704 25.1712 27.9266 24.7743 27.5376 24.5891L18.1438 20.0977C17.7258 19.8969 17.2266 19.9829 16.8985 20.3102ZM24.3969 25.511L23.1915 26.018C22.9282 26.129 22.718 26.3383 22.6079 26.6016L22.1009 27.8071L19.9962 23.4055L24.3969 25.511Z" fill="#48D6D2"/>
<path d="M15.7789 26.484C15.9039 26.5301 16.0328 26.5527 16.1586 26.5527C16.6031 26.5527 17.0211 26.2801 17.1844 25.8387C17.3945 25.2723 17.1055 24.6426 16.5391 24.4332C15.2242 23.9457 14.3406 22.6762 14.3406 21.273C14.3406 19.4152 15.8516 17.9043 17.7094 17.9043C19.1109 17.9043 20.3805 18.7863 20.868 20.0988C21.0781 20.6652 21.7086 20.9535 22.2742 20.7426C22.8406 20.5324 23.1289 19.9027 22.918 19.3363C22.1125 17.1715 20.0195 15.7168 17.7086 15.7168C14.6445 15.7168 12.1523 18.2098 12.1523 21.273C12.1523 23.5855 13.6102 25.6801 15.7789 26.484Z" fill="#13316B"/>
<path d="M37.5 3.54492H2.5C1.89609 3.54492 1.40625 4.03477 1.40625 4.63867V35.3605C1.40625 35.9645 1.89609 36.4543 2.5 36.4543H37.5C38.1039 36.4543 38.5938 35.9645 38.5938 35.3605V4.63867C38.5938 4.03477 38.1039 3.54492 37.5 3.54492ZM36.4062 34.2668H3.59375V13.0145H36.4062V34.2668ZM36.4062 10.827H3.59375V5.73242H36.4062V10.827Z" fill="#13316B"/>
<path d="M6.73945 9.36367C7.34093 9.36367 7.82852 8.87608 7.82852 8.27461C7.82852 7.67314 7.34093 7.18555 6.73945 7.18555C6.13798 7.18555 5.65039 7.67314 5.65039 8.27461C5.65039 8.87608 6.13798 9.36367 6.73945 9.36367Z" fill="#48D6D2"/>
<path d="M10.0378 9.27907C10.5935 9.04871 10.8573 8.41143 10.627 7.85567C10.3966 7.2999 9.75932 7.03612 9.20356 7.26648C8.6478 7.49685 8.38401 8.13413 8.61438 8.68989C8.84474 9.24565 9.48202 9.50943 10.0378 9.27907Z" fill="#48D6D2"/>
<path d="M12.9167 9.27712C13.4724 9.04675 13.7362 8.40947 13.5059 7.85371C13.2755 7.29795 12.6382 7.03417 12.0825 7.26453C11.5267 7.49489 11.2629 8.13217 11.4933 8.68793C11.7236 9.2437 12.3609 9.50748 12.9167 9.27712Z" fill="#48D6D2"/>
</svg>
