<svg width="40" height="40" viewBox="0 0 40 40" fill="none" xmlns="http://www.w3.org/2000/svg">
<path d="M33.1477 6.85234C29.6359 3.34062 24.9664 1.40625 20 1.40625C15.0336 1.40625 10.3641 3.34062 6.85234 6.85234C3.34062 10.3641 1.40625 15.0336 1.40625 20C1.40625 24.9664 3.34062 29.6359 6.85234 33.1477C10.3641 36.6594 15.0336 38.5938 20 38.5938C24.9664 38.5938 29.6359 36.6594 33.1477 33.1477C36.6594 29.6359 38.5938 24.9664 38.5938 20C38.5938 15.0336 36.6594 10.3641 33.1477 6.85234ZM20 36.4062C10.9539 36.4062 3.59375 29.0461 3.59375 20C3.59375 10.9539 10.9539 3.59375 20 3.59375C29.0461 3.59375 36.4062 10.9539 36.4062 20C36.4062 29.0461 29.0461 36.4062 20 36.4062Z" fill="#13316B"/>
<path d="M31.5539 9.96094C31.1578 9.50547 30.4664 9.45703 30.0109 9.85391C29.5555 10.2508 29.507 10.9414 29.9039 11.3969C31.9812 13.7844 33.125 16.8398 33.125 20C33.125 27.2375 27.2375 33.125 20 33.125C12.7625 33.125 6.875 27.2375 6.875 20C6.875 12.7625 12.7625 6.875 20 6.875C20.6039 6.875 21.0938 6.38516 21.0938 5.78125C21.0938 5.17734 20.6039 4.6875 20 4.6875C11.557 4.6875 4.6875 11.557 4.6875 20C4.6875 28.443 11.557 35.3125 20 35.3125C28.443 35.3125 35.3125 28.443 35.3125 20C35.3125 16.3117 33.9773 12.7469 31.5539 9.96094Z" fill="#48D6D2"/>
<path d="M7.96875 20C7.96875 26.6344 13.3656 32.0312 20 32.0312C26.6344 32.0312 32.0312 26.6344 32.0312 20C32.0312 13.3656 26.6344 7.96875 20 7.96875C13.3656 7.96875 7.96875 13.3656 7.96875 20ZM29.8438 20C29.8438 25.4281 25.4281 29.8438 20 29.8438C14.5719 29.8438 10.1562 25.4281 10.1562 20C10.1562 14.5719 14.5719 10.1562 20 10.1562C25.4281 10.1562 29.8438 14.5719 29.8438 20Z" fill="#13316B"/>
</svg>
