<svg width="40" height="40" viewBox="0 0 40 40" fill="none" xmlns="http://www.w3.org/2000/svg">
<path d="M38.557 2.78319L29.1781 37.784C29.0703 38.1863 28.7429 38.4926 28.3343 38.5738C28.264 38.5879 28.1921 38.5941 28.1218 38.5941C27.7851 38.5941 27.4624 38.4387 27.2531 38.1652L18.1078 26.2152V23.4394L18.4648 23.0824L27.6406 35.0715L35.9538 4.04726L4.92886 12.3598L14.1687 19.4316C14.6484 19.7988 14.7398 20.4848 14.3726 20.9652C14.0054 21.4449 13.3187 21.5355 12.839 21.1683L1.83511 12.7473C1.50386 12.4941 1.34604 12.0746 1.42729 11.666C1.50776 11.2574 1.81401 10.9301 2.21636 10.8223L37.2171 1.44335C37.5945 1.34257 37.9976 1.45038 38.2734 1.72694C38.5499 2.00351 38.6578 2.40585 38.557 2.78319Z" fill="#13316B"/>
<path d="M15.9875 22.6094C15.95 22.7109 15.9281 22.8172 15.9219 22.925C15.9273 22.8164 15.9492 22.7102 15.9875 22.6094Z" fill="#1D1D1B"/>
<path d="M18.1074 30.9631C18.4809 30.8506 18.9027 30.942 19.198 31.2373C19.6254 31.6639 19.6254 32.3568 19.198 32.7842L17.7871 34.1943C17.5777 34.4037 17.298 34.5146 17.0137 34.5146C16.873 34.5146 16.7309 34.4873 16.5957 34.431C16.1863 34.2623 15.9199 33.8631 15.9199 33.4209V22.9865C15.9215 22.8584 15.9434 22.731 15.9879 22.6107C15.9871 22.61 15.9871 22.61 15.9879 22.61C16.0418 22.4615 16.1285 22.3256 16.2402 22.2131L29.709 8.74434C30.1363 8.31699 30.8293 8.31699 31.2558 8.74434C31.6832 9.17168 31.6832 9.86387 31.2558 10.2912L18.1074 23.4396V30.9631Z" fill="#48D6D2"/>
</svg>
